<mxfile host="app.diagrams.net" agent="Mozilla/5.0 (Windows NT 10.0; Win64; x64) AppleWebKit/537.36 (KHTML, like Gecko) Chrome/136.0.0.0 Safari/537.36 Edg/136.0.0.0" version="27.0.3">
  <diagram name="第 1 页" id="r3uAjjdcv3O7BEJnWDpC">
    <mxGraphModel dx="1426" dy="789" grid="1" gridSize="10" guides="1" tooltips="1" connect="1" arrows="1" fold="1" page="1" pageScale="1" pageWidth="827" pageHeight="1169" math="0" shadow="0">
      <root>
        <mxCell id="0" />
        <mxCell id="1" parent="0" />
        <mxCell id="h7q46tlfSWM6OLHdhXFA-1" value="&amp;nbsp; &amp;nbsp; Mobile Device" style="verticalAlign=top;align=left;shape=cube;size=10;direction=south;fontStyle=0;html=1;boundedLbl=1;spacingLeft=5;whiteSpace=wrap;" parent="1" vertex="1">
          <mxGeometry x="80" y="185" width="130" height="110" as="geometry" />
        </mxCell>
        <mxCell id="h7q46tlfSWM6OLHdhXFA-3" value="&amp;nbsp; &amp;nbsp; Cloud Platform" style="verticalAlign=top;align=left;shape=cube;size=10;direction=south;fontStyle=0;html=1;boundedLbl=1;spacingLeft=5;whiteSpace=wrap;" parent="1" vertex="1">
          <mxGeometry x="80" y="390" width="130" height="140" as="geometry" />
        </mxCell>
        <mxCell id="h7q46tlfSWM6OLHdhXFA-5" value="&amp;nbsp; IoT Device" style="verticalAlign=top;align=left;shape=cube;size=10;direction=south;fontStyle=0;html=1;boundedLbl=1;spacingLeft=5;whiteSpace=wrap;" parent="1" vertex="1">
          <mxGeometry x="350" y="190" width="100" height="100" as="geometry" />
        </mxCell>
        <mxCell id="h7q46tlfSWM6OLHdhXFA-7" value="&amp;nbsp; Database Server" style="verticalAlign=top;align=left;shape=cube;size=10;direction=south;fontStyle=0;html=1;boundedLbl=1;spacingLeft=5;whiteSpace=wrap;" parent="1" vertex="1">
          <mxGeometry x="335" y="410" width="130" height="80" as="geometry" />
        </mxCell>
        <mxCell id="h7q46tlfSWM6OLHdhXFA-16" value="" style="rounded=0;whiteSpace=wrap;html=1;" parent="1" vertex="1">
          <mxGeometry x="100" y="430" width="90" height="40" as="geometry" />
        </mxCell>
        <mxCell id="h7q46tlfSWM6OLHdhXFA-17" value="Web Server" style="text;html=1;align=center;verticalAlign=middle;whiteSpace=wrap;rounded=0;" parent="1" vertex="1">
          <mxGeometry x="107.5" y="435" width="75" height="30" as="geometry" />
        </mxCell>
        <mxCell id="h7q46tlfSWM6OLHdhXFA-19" value="" style="rounded=0;whiteSpace=wrap;html=1;" parent="1" vertex="1">
          <mxGeometry x="100" y="480" width="90" height="40" as="geometry" />
        </mxCell>
        <mxCell id="h7q46tlfSWM6OLHdhXFA-20" value="API Gateway" style="text;html=1;align=center;verticalAlign=middle;whiteSpace=wrap;rounded=0;" parent="1" vertex="1">
          <mxGeometry x="107.5" y="485" width="75" height="30" as="geometry" />
        </mxCell>
        <mxCell id="h7q46tlfSWM6OLHdhXFA-21" value="" style="rounded=0;whiteSpace=wrap;html=1;" parent="1" vertex="1">
          <mxGeometry x="100" y="230" width="90" height="40" as="geometry" />
        </mxCell>
        <mxCell id="h7q46tlfSWM6OLHdhXFA-22" value="Mobile APP" style="text;html=1;align=center;verticalAlign=middle;whiteSpace=wrap;rounded=0;" parent="1" vertex="1">
          <mxGeometry x="107.5" y="235" width="75" height="30" as="geometry" />
        </mxCell>
        <mxCell id="h7q46tlfSWM6OLHdhXFA-25" style="edgeStyle=orthogonalEdgeStyle;rounded=0;orthogonalLoop=1;jettySize=auto;html=1;entryX=0.518;entryY=0.015;entryDx=0;entryDy=0;entryPerimeter=0;" parent="1" source="h7q46tlfSWM6OLHdhXFA-5" target="h7q46tlfSWM6OLHdhXFA-1" edge="1">
          <mxGeometry relative="1" as="geometry">
            <Array as="points">
              <mxPoint x="310" y="242" />
              <mxPoint x="310" y="242" />
            </Array>
          </mxGeometry>
        </mxCell>
        <mxCell id="h7q46tlfSWM6OLHdhXFA-26" value="Bluetooth" style="edgeLabel;html=1;align=center;verticalAlign=middle;resizable=0;points=[];" parent="h7q46tlfSWM6OLHdhXFA-25" vertex="1" connectable="0">
          <mxGeometry x="0.0144" y="-2" relative="1" as="geometry">
            <mxPoint as="offset" />
          </mxGeometry>
        </mxCell>
        <mxCell id="h7q46tlfSWM6OLHdhXFA-29" style="edgeStyle=orthogonalEdgeStyle;rounded=0;orthogonalLoop=1;jettySize=auto;html=1;exitX=0;exitY=0;exitDx=110;exitDy=70;exitPerimeter=0;entryX=-0.002;entryY=0.534;entryDx=0;entryDy=0;entryPerimeter=0;" parent="1" source="h7q46tlfSWM6OLHdhXFA-1" target="h7q46tlfSWM6OLHdhXFA-3" edge="1">
          <mxGeometry relative="1" as="geometry" />
        </mxCell>
        <mxCell id="h7q46tlfSWM6OLHdhXFA-30" value="HTTP" style="edgeLabel;html=1;align=center;verticalAlign=middle;resizable=0;points=[];" parent="h7q46tlfSWM6OLHdhXFA-29" vertex="1" connectable="0">
          <mxGeometry x="-0.0561" y="1" relative="1" as="geometry">
            <mxPoint as="offset" />
          </mxGeometry>
        </mxCell>
        <mxCell id="h7q46tlfSWM6OLHdhXFA-34" value="" style="endArrow=none;html=1;rounded=0;exitX=0;exitY=0;exitDx=65;exitDy=0;exitPerimeter=0;entryX=0;entryY=0;entryDx=45;entryDy=130;entryPerimeter=0;" parent="1" source="h7q46tlfSWM6OLHdhXFA-3" target="h7q46tlfSWM6OLHdhXFA-7" edge="1">
          <mxGeometry width="50" height="50" relative="1" as="geometry">
            <mxPoint x="270" y="510" as="sourcePoint" />
            <mxPoint x="320" y="460" as="targetPoint" />
          </mxGeometry>
        </mxCell>
        <mxCell id="h7q46tlfSWM6OLHdhXFA-35" value="JDBC" style="edgeLabel;html=1;align=center;verticalAlign=middle;resizable=0;points=[];" parent="h7q46tlfSWM6OLHdhXFA-34" vertex="1" connectable="0">
          <mxGeometry x="-0.0446" y="-1" relative="1" as="geometry">
            <mxPoint as="offset" />
          </mxGeometry>
        </mxCell>
        <mxCell id="h7q46tlfSWM6OLHdhXFA-38" value="" style="endArrow=classic;html=1;rounded=0;entryX=0.214;entryY=-0.002;entryDx=0;entryDy=0;entryPerimeter=0;exitX=0.8;exitY=1;exitDx=0;exitDy=0;exitPerimeter=0;" parent="1" source="h7q46tlfSWM6OLHdhXFA-5" target="h7q46tlfSWM6OLHdhXFA-3" edge="1">
          <mxGeometry width="50" height="50" relative="1" as="geometry">
            <mxPoint x="270" y="510" as="sourcePoint" />
            <mxPoint x="320" y="460" as="targetPoint" />
          </mxGeometry>
        </mxCell>
        <mxCell id="h7q46tlfSWM6OLHdhXFA-39" value="HTTP" style="edgeLabel;html=1;align=center;verticalAlign=middle;resizable=0;points=[];" parent="h7q46tlfSWM6OLHdhXFA-38" vertex="1" connectable="0">
          <mxGeometry x="-0.0137" relative="1" as="geometry">
            <mxPoint as="offset" />
          </mxGeometry>
        </mxCell>
      </root>
    </mxGraphModel>
  </diagram>
</mxfile>
